HIERARCHY
ROOT root
{
	OFFSET 0.000000 0.000000 0.000000
	CHANNELS 6 Xposition Yposition Zposition Zrotation Yrotation Xrotation
	JOINT lhip
	{
		OFFSET 0.058581 -0.082280 -0.017664
		CHANNELS 3 Zrotation Yrotation Xrotation
		JOINT lknee
		{
			OFFSET 0.043451 -0.386469 0.008037
			CHANNELS 3 Zrotation Yrotation Xrotation
			JOINT lankle
			{
				OFFSET -0.014790 -0.426874 -0.037428
				CHANNELS 3 Zrotation Yrotation Xrotation
				JOINT ltoe
				{
					OFFSET 0.041054 -0.060286 0.122042
					CHANNELS 3 Zrotation Yrotation Xrotation
					End Site
					{
						OFFSET 0.000000 0.000000 0.000000
					}
				}
			}
		}
	}
	JOINT rhip
	{
		OFFSET -0.060310 -0.090513 -0.013543
		CHANNELS 3 Zrotation Yrotation Xrotation
		JOINT rknee
		{
			OFFSET -0.043257 -0.383688 -0.004843
			CHANNELS 3 Zrotation Yrotation Xrotation
			JOINT rankle
			{
				OFFSET 0.019056 -0.420046 -0.034562
				CHANNELS 3 Zrotation Yrotation Xrotation
				JOINT rtoe
				{
					OFFSET -0.034840 -0.062106 0.130323
					CHANNELS 3 Zrotation Yrotation Xrotation
					End Site
					{
						OFFSET 0.000000 0.000000 0.000000
					}
				}
			}
		}
	}
	JOINT lowerback
	{
		OFFSET 0.004439 0.124404 -0.038385
		CHANNELS 3 Zrotation Yrotation Xrotation
		JOINT upperback
		{
			OFFSET 0.004488 0.137956 0.026820
			CHANNELS 3 Zrotation Yrotation Xrotation
			JOINT chest
			{
				OFFSET -0.002265 0.056032 0.002855
				CHANNELS 3 Zrotation Yrotation Xrotation
				JOINT lowerneck
				{
					OFFSET -0.013390 0.211636 -0.033468
					CHANNELS 3 Zrotation Yrotation Xrotation
					JOINT upperneck
					{
						OFFSET 0.010113 0.088937 0.050410
						CHANNELS 3 Zrotation Yrotation Xrotation
						End Site
						{
							OFFSET 0.000000 0.000000 0.000000
						}
					}
				}
				JOINT lclavicle
				{
					OFFSET 0.071702 0.114000 -0.018898
					CHANNELS 3 Zrotation Yrotation Xrotation
					JOINT lshoulder
					{
						OFFSET 0.122921 0.045205 -0.019046
						CHANNELS 3 Zrotation Yrotation Xrotation
						JOINT lelbow
						{
							OFFSET 0.255332 -0.015649 -0.022946
							CHANNELS 3 Zrotation Yrotation Xrotation
							JOINT lwrist
							{
								OFFSET 0.265709 0.012698 -0.007375
								CHANNELS 3 Zrotation Yrotation Xrotation
								End Site
								{
									OFFSET 0.000000 0.000000 0.000000
								}
							}
						}
					}
				}
				JOINT rclavicle
				{
					OFFSET -0.082954 0.112472 -0.023707
					CHANNELS 3 Zrotation Yrotation Xrotation
					JOINT rshoulder
					{
						OFFSET -0.113228 0.046853 -0.008472
						CHANNELS 3 Zrotation Yrotation Xrotation
						JOINT relbow
						{
							OFFSET -0.260127 -0.014369 -0.031269
							CHANNELS 3 Zrotation Yrotation Xrotation
							JOINT rwrist
							{
								OFFSET -0.269108 0.006794 -0.006027
								CHANNELS 3 Zrotation Yrotation Xrotation
								End Site
								{
									OFFSET 0.000000 0.000000 0.000000
								}
							}
						}
					}
				}
			}
		}
	}
}
MOTION
Frames: 10
Frame Time: 0.033333
1.788830 0.761150 0.942607 -88.444464 0.017725 94.751562 -0.593118 -3.009591 -20.540285 -9.138542 -11.061086 33.662637 2.951011 14.059979 -29.457314 0.000000 -0.000000 0.000000 1.187050 3.544813 -23.870194 2.933440 0.851080 39.775456 5.513776 -8.909102 -26.868551 0.000000 -0.000000 0.000000 -4.450974 2.980687 35.523616 1.752661 -1.007108 -3.532056 2.665448 -2.129683 5.265775 3.188154 1.043669 -17.471230 6.037661 -7.999422 -15.968769 -20.865415 9.075664 2.701041 -47.253765 8.465965 7.385671 -6.904093 -35.084233 19.142458 1.523088 -4.171639 -10.541504 21.420022 -5.612276 -2.275250 55.475313 -11.944942 7.443262 -6.416076 17.502611 -1.869127 -0.803636 0.671686 -1.682814 
1.803177 0.765696 0.916812 -78.464318 3.839070 108.831709 9.731112 -10.078073 -44.137005 -12.627580 -7.332761 44.428478 3.687169 12.396448 -29.542638 0.000000 -0.000000 0.000000 2.643967 3.843193 -42.952395 4.469535 -6.068571 44.974783 2.975983 -14.389641 -28.345649 0.000000 -0.000000 0.000000 2.703245 -4.361590 22.989579 5.326837 -2.047336 -4.664904 0.282716 -2.564001 6.395150 2.582654 0.022172 -16.784787 5.441675 -7.928621 -16.404150 -22.728396 11.718968 5.526255 -47.364559 5.996901 10.089864 -4.195176 -33.661408 17.795774 -1.218184 -3.359032 -11.941548 21.427488 -9.144796 0.437076 53.466349 -10.307974 8.177890 -6.457802 16.871915 1.971942 1.162518 1.264121 -5.790572 
1.813379 0.772082 0.895652 -73.892974 5.151085 116.368407 18.541666 -12.940107 -57.700237 -15.850199 -2.486886 51.251786 5.724085 13.362372 -31.259623 0.000000 -0.000000 0.000000 -0.332759 5.995611 -54.303318 6.722743 -12.346577 49.087962 1.505054 -19.360221 -30.475976 0.000000 -0.000000 0.000000 7.420629 -7.799478 15.802775 6.486674 -2.053378 -3.693264 -1.453512 -2.905809 7.892578 2.305348 -1.359541 -19.474567 5.770115 -7.073526 -13.027034 -23.985250 10.518163 5.886079 -47.857794 6.194761 9.467296 -3.060722 -32.251394 15.349853 -2.099255 -3.929565 -9.514968 22.463569 -8.792246 1.297256 52.724279 -8.909096 8.461193 -7.126578 15.100757 0.349358 1.484005 1.136579 -5.901220 
1.810411 0.774269 0.874523 -73.983186 5.150839 117.185197 20.278289 -12.969982 -61.459755 -16.610760 0.856808 57.044087 6.641324 13.450391 -33.697846 0.000000 -0.000000 0.000000 -1.455678 6.185645 -58.128076 6.214620 -14.492757 55.338658 1.366301 -19.120790 -33.405351 0.000000 -0.000000 0.000000 7.629472 -8.480522 17.680511 6.689745 -1.624802 -3.324539 -1.757963 -2.739280 6.905633 2.107224 -0.582617 -20.209285 5.227833 -6.828043 -12.781782 -25.105491 8.985855 6.016654 -48.625257 6.225030 9.658736 -1.251932 -30.853528 13.134713 -2.359496 -3.918358 -9.142594 23.750179 -7.383325 1.634839 52.463502 -8.231694 8.328259 -7.766040 13.980552 -0.589509 2.348624 1.299091 -5.177762 
1.803139 0.776918 0.851252 -73.895848 5.256552 117.833032 21.061015 -12.536629 -64.517047 -16.886513 2.853367 62.886167 6.988088 13.513590 -36.104085 0.000000 -0.000000 0.000000 -1.794772 5.935269 -61.274716 5.639259 -16.015361 61.357596 1.190113 -18.859507 -36.191246 0.000000 -0.000000 0.000000 7.958354 -9.320894 19.320949 6.730835 -1.262413 -4.140473 -1.961733 -2.622862 6.793111 2.203710 -1.072636 -20.811350 4.722839 -7.054228 -11.771377 -27.234554 7.298603 6.152309 -48.811306 5.427402 9.442897 0.891608 -29.290666 9.698838 -1.497792 -4.079625 -7.838443 25.333514 -5.186047 2.271953 51.802256 -6.850213 8.344261 -7.562234 13.202911 -1.592129 1.201851 1.709213 -4.224716 
1.790925 0.778031 0.829469 -74.432801 5.286935 117.255330 21.372914 -12.430520 -65.844117 -16.996552 4.740091 68.695070 6.679073 13.141950 -38.086758 0.000000 -0.000000 0.000000 -2.006059 6.037313 -62.378026 4.392623 -17.173808 67.207970 1.193754 -18.051241 -38.649897 0.000000 -0.000000 0.000000 7.861860 -9.810930 21.412194 6.578118 -1.031441 -4.161815 -2.243331 -2.376952 5.825508 2.402708 -1.153870 -21.269241 4.318207 -7.510589 -10.797628 -29.648304 5.016421 5.742687 -48.811760 3.975287 9.441636 3.395054 -27.318001 5.625266 -0.332496 -4.317455 -7.166236 27.474445 -2.511106 2.697661 50.817790 -4.613743 8.707985 -7.673204 12.371063 -2.512699 -0.020747 2.138963 -3.300222 
1.773497 0.778574 0.810915 -75.568073 5.177421 115.870209 20.665516 -12.526211 -65.346529 -16.935153 5.900869 74.118297 6.043820 12.590190 -39.843395 0.000000 -0.000000 0.000000 -1.796307 6.361761 -61.886264 3.487776 -17.347822 72.623241 1.549782 -17.150987 -41.041067 0.000000 -0.000000 0.000000 7.038346 -9.679866 23.130276 6.385640 -1.140194 -4.085994 -2.367343 -2.362601 5.268322 2.841706 -0.224269 -22.050634 3.755484 -7.353532 -9.633044 -32.024439 2.571365 5.033264 -48.938454 1.362127 9.427727 6.628072 -25.109265 1.365425 1.538050 -4.493027 -6.463934 29.744747 0.250995 2.586490 49.617719 -0.957182 9.490547 -8.123348 11.908645 -3.441255 -1.897246 2.233620 -2.522774 
1.751239 0.779025 0.798479 -76.442258 5.001978 114.850586 19.891804 -13.040795 -64.035473 -16.486068 6.597103 78.180859 5.436966 12.047209 -40.406854 0.000000 -0.000000 0.000000 -1.407230 6.708915 -60.382592 2.810978 -17.006466 76.309446 2.169600 -16.728772 -42.179100 0.000000 -0.000000 0.000000 6.613115 -9.498652 23.663974 6.049318 -1.136638 -5.472740 -2.404906 -2.476623 5.484495 2.997831 -0.581533 -21.599213 3.443650 -7.139015 -8.128273 -33.542089 -0.117858 4.269788 -50.262295 -1.996910 9.546227 10.563858 -22.721457 -3.351247 4.394330 -3.995581 -5.956535 31.449681 2.714988 2.515383 48.844995 2.883718 9.979449 -9.276520 13.267680 -4.742472 -3.089290 1.932068 -2.288356 
1.723479 0.778710 0.796824 -77.270385 4.687770 112.618165 17.602261 -13.905131 -59.113021 -15.842111 5.828292 79.464669 4.862794 12.030896 -41.417370 0.000000 -0.000000 0.000000 -0.459629 7.096220 -56.066415 1.704295 -16.187790 78.190010 3.209997 -15.139002 -42.348371 0.000000 -0.000000 0.000000 5.970285 -9.006576 24.420498 5.962057 -1.757698 -5.743257 -2.126100 -2.622565 4.937685 2.709142 -2.474311 -20.235657 3.234565 -7.687609 -8.015222 -33.556176 -2.264800 3.556676 -52.255290 -4.658966 9.842308 13.489526 -25.919921 -7.411943 8.227325 -1.193308 -6.746051 30.763566 4.894174 1.386513 50.004055 5.101757 10.613381 -11.167091 20.321687 -7.658018 -4.876628 1.087287 -4.528974 
1.686639 0.777395 0.809257 -79.579758 3.970862 110.075859 14.014869 -14.064144 -50.307774 -14.728505 4.399031 76.361010 4.064277 12.491643 -41.877569 0.000000 -0.000000 0.000000 1.224651 7.939364 -48.947699 1.503019 -13.522828 76.103158 3.336060 -14.389682 -41.142407 0.000000 -0.000000 0.000000 4.344533 -7.478235 23.817529 5.228995 -2.097553 -6.025964 -1.692118 -2.662821 4.850818 2.128651 0.785852 -21.378564 4.080896 -4.529289 -7.299964 -32.001801 -3.831247 3.138114 -53.639343 -5.349124 10.975930 14.857749 -34.277105 -8.416636 9.805026 -1.021882 -9.512209 29.268651 5.854480 0.335419 51.912069 4.838365 12.665314 -14.226690 33.405785 -10.185892 -5.826054 0.142735 -9.947866 
